<!DOCTYPE svg PUBLIC "-//W3C//DTD SVG 1.1//EN" "http://www.w3.org/Graphics/SVG/1.1/DTD/svg11.dtd">
<!-- Uploaded to: SVG Repo, www.svgrepo.com, Transformed by: SVG Repo Mixer Tools -->
<svg fill="#ffffff" width="100px" height="100px" viewBox="-3.6 -3.6 43.20 43.20" version="1.1" preserveAspectRatio="xMidYMid meet" xmlns="http://www.w3.org/2000/svg" xmlns:xlink="http://www.w3.org/1999/xlink" stroke="#ffffff" stroke-width="0.00036" transform="matrix(1, 0, 0, 1, 0, 0)rotate(0)">
<g id="SVGRepo_bgCarrier" stroke-width="0"/>
<g id="SVGRepo_tracerCarrier" stroke-linecap="round" stroke-linejoin="round" stroke="#CCCCCC" stroke-width="0.43200000000000005"/>
<g id="SVGRepo_iconCarrier"> <title>picture-solid</title> <path d="M32,4H4A2,2,0,0,0,2,6V30a2,2,0,0,0,2,2H32a2,2,0,0,0,2-2V6A2,2,0,0,0,32,4ZM8.92,8a3,3,0,1,1-3,3A3,3,0,0,1,8.92,8ZM6,27V22.9l6-6.08a1,1,0,0,1,1.41,0L16,19.35,8.32,27Zm24,0H11.15l6.23-6.23,5.4-5.4a1,1,0,0,1,1.41,0L30,21.18Z" class="clr-i-solid clr-i-solid-path-1"/> <rect x="0" y="0" width="36" height="36" fill-opacity="0"/> </g>
</svg>